<svg width="3710" height="3710" viewBox="0 0 3710 3710" fill="none" xmlns="http://www.w3.org/2000/svg">
<path d="M3710 0H0V3710H3710V0Z" fill="white"/>
<path d="M1184.5 1961.1C1186.8 1961.1 1188.6 1963 1188.6 1965.2C1188.6 1967.5 1186.7 1969.3 1184.5 1969.3C1182.2 1969.3 1180.4 1967.4 1180.4 1965.2C1180.4 1963 1182.2 1961.1 1184.5 1961.1Z" fill="#F28D55"/>
<path d="M1201.9 1977.8L1197.3 1976.8C1195.7 1976.5 1194.2 1977.2 1193.4 1978.5C1192.6 1978.1 1191.7 1977.7 1190.8 1977.4V1974.7C1190.8 1972.6 1189.1 1970.9 1187 1970.9H1182.3C1180.2 1970.9 1178.5 1972.6 1178.5 1974.7V1977.5C1177.6 1977.8 1176.8 1978.1 1175.9 1978.6C1175.1 1977.3 1173.5 1976.6 1172 1976.9L1167.4 1977.9C1165.4 1978.3 1164.1 1980.3 1164.5 1982.4L1165.7 1987.9C1166.1 1989.9 1168.1 1991.2 1170.2 1990.8L1171.7 1990.5C1172.4 1991.6 1173.4 1992.6 1174.7 1993.4C1177.4 1995.2 1181 1996.1 1184.7 1996.1C1190.5 1996.1 1195.5 1993.8 1197.8 1990.4L1199.3 1990.7C1201.3 1991.1 1203.3 1989.8 1203.8 1987.8L1205 1982.3C1205.2 1980.2 1203.9 1978.2 1201.9 1977.8ZM1184.6 1994.2C1181.2 1994.2 1178 1993.3 1175.6 1991.8C1174.8 1991.3 1174.1 1990.7 1173.6 1990L1174.7 1989.8C1176.7 1989.4 1178 1987.4 1177.6 1985.3L1176.6 1980.3C1177.2 1980 1177.8 1979.7 1178.5 1979.4V1980.3C1178.5 1982.4 1180.2 1984.1 1182.3 1984.1H1187C1189.1 1984.1 1190.8 1982.4 1190.8 1980.3V1979.3C1191.5 1979.5 1192.1 1979.8 1192.7 1980.1L1191.6 1985.1C1191.2 1987.1 1192.5 1989.1 1194.5 1989.6L1195.6 1989.8C1193.6 1992.5 1189.4 1994.2 1184.6 1994.2Z" fill="#E8F4F9"/>
<path d="M1200.8 1967.7C1203 1967.7 1204.9 1969.5 1204.9 1971.8C1204.9 1974 1203.1 1975.9 1200.8 1975.9C1198.6 1975.9 1196.7 1974.1 1196.7 1971.8C1196.8 1969.5 1198.6 1967.7 1200.8 1967.7Z" fill="#A07450"/>
<path d="M1169.2 1975.8C1171.4 1975.3 1172.8 1973.2 1172.4 1970.9C1171.9 1968.7 1169.8 1967.3 1167.5 1967.7C1165.3 1968.2 1163.9 1970.3 1164.3 1972.6C1164.8 1974.9 1167 1976.3 1169.2 1975.8Z" fill="#F2D81D"/>
<path d="M1185.3 1992L1178.2 2040.1L1215.9 2025.6L1185.3 1992Z" fill="#3650A2"/>
<path d="M1141.1 2012.3L1179 2036.2L1185.4 1992L1141.1 2012.3Z" fill="#385BA8"/>
<path d="M1150.3 1981.8L1154 2012.2L1185.4 1991.9L1150.3 1981.8Z" fill="#2B5399"/>
<path d="M1184.9 1991.9L1204.9 2018.1L1217.6 1984.9L1184.9 1991.9Z" fill="#304C91"/>
<path d="M1142.3 1960.6L1156.5 1986.5L1185.4 1991.9L1247.7 1981L1142.3 1960.6Z" fill="#3650A2"/>
<path d="M1200.4 2005C1198.9 2009.4 1196.2 2012.7 1192.2 2014.9C1188.2 2017.1 1184.2 2017.6 1180.2 2016.6C1176.2 2015.5 1173.1 2012.9 1170.9 2008.8C1168.6 2004.6 1168.2 2000.6 1169.5 1996.7C1170.8 1992.8 1173.3 1989.9 1177 1987.9C1180.6 1985.9 1184.3 1985.4 1188.1 1986.2C1191.8 1987 1194.7 1989.4 1196.8 1993.2L1197.5 1994.5L1179.6 2007.5C1180.6 2008.8 1182 2009.6 1183.8 2009.8C1185.6 2010 1187.3 2009.7 1188.9 2008.8C1191.5 2007.4 1193.2 2005.4 1193.9 2002.7L1200.4 2005ZM1184.3 1992.7C1182.8 1992.6 1181.4 1993 1180 1994C1178.7 1995 1177.7 1996.3 1177.2 1997.9C1176.7 1999.5 1176.8 2001.1 1177.7 2002.6L1188.4 1994.8C1187.2 1993.5 1185.8 1992.8 1184.3 1992.7Z" fill="#E8F4F9"/>
<path d="M2934.9 2852.4C2877.5 2912.9 2823.1 2951.8 2780.2 2982.6C2275.6 3344.7 1678.5 3239.1 1551.6 3213.4C1364.2 3175.3 1002 3101.8 740.101 2793.8C343.901 2327.9 390.101 1533.2 697.401 1048.6C753.601 960 1105.4 460 1735.9 438.6C2104.1 426.1 2460.6 498.3 2769 756.6C3416.2 1298.8 3370.1 2394.2 2934.9 2852.4Z" fill="#EEEEEE"/>
<path d="M728.201 552C724.501 537.1 745.501 532.5 758.601 545.4C891.301 675.7 1210.9 1047.9 1139 1553.8C1048.8 2188.5 1220.7 2467.1 1432.7 2661.6C1432.7 2661.6 1143.3 2526.6 958.701 2241.5C505.301 1541.7 794.201 817.4 728.201 552Z" fill="#4DB6AC"/>
<path opacity="0.47" d="M838.201 779.1C853.501 807.7 865.501 837.4 876.401 867.6C879.001 875.2 882.001 882.7 884.401 890.3L891.701 913.2L895.401 924.7L898.601 936.3L905.101 959.5C921.501 1021.6 932.901 1085 941.101 1148.7L946.501 1196.6C947.801 1212.6 948.701 1228.6 949.901 1244.7L951.501 1268.7C951.801 1276.7 952.001 1284.8 952.201 1292.8L953.501 1341C953.701 1345 953.601 1349 953.501 1353L953.301 1365L952.901 1389.1L952.501 1413.2C952.401 1421.2 952.301 1429.3 951.701 1437.3L948.801 1485.4C947.801 1501.4 946.901 1517.5 945.801 1533.2C936.701 1659.7 947.201 1787.1 968.701 1912.1C971.301 1927.8 974.401 1943.3 977.401 1958.9C980.601 1974.4 983.801 1990 987.301 2005.5C994.301 2036.5 1002 2067.3 1010.4 2097.9C1018.7 2128.6 1027.8 2159 1037.6 2189.2C1042.5 2204.3 1047.6 2219.3 1052.9 2234.3C1058.2 2249.2 1063.7 2264.2 1069.5 2278.6L1069.6 2278.8C1072 2284.6 1069.1 2291.3 1063.3 2293.7C1057.5 2296 1050.9 2293.3 1048.5 2287.5C1035.9 2257.4 1025 2227.3 1014.8 2196.7C1004.6 2166.2 995.201 2135.5 986.501 2104.5C977.901 2073.5 970.101 2042.3 963.001 2011C959.401 1995.3 956.201 1979.6 952.901 1963.8C949.901 1948 946.701 1932.2 944.101 1916.4C941.201 1900.6 938.901 1884.7 936.301 1868.8C934.101 1852.9 931.801 1836.9 930.101 1820.9C926.201 1788.9 923.601 1756.8 921.601 1724.7L920.301 1700.6C919.901 1692.6 919.801 1684.5 919.501 1676.5C918.901 1660.4 919.001 1644.3 918.901 1628.2C919.301 1596 920.201 1563.7 922.901 1531.6L930.101 1436.3C930.801 1428.4 931.001 1420.4 931.201 1412.5L932.001 1388.7L932.801 1364.9L933.201 1353C933.401 1349 933.501 1345.1 933.301 1341.1L932.801 1293.4C932.701 1285.5 932.701 1277.5 932.501 1269.6L931.201 1245.8C930.301 1229.9 929.601 1214.1 928.601 1198.2L924.301 1150.7C917.701 1087.5 907.901 1024.5 893.101 962.7L887.401 939.5L884.501 927.9L881.201 916.4L874.701 893.5C872.501 885.8 869.901 878.3 867.501 870.8C865.101 863.2 862.701 855.6 859.901 848.2C857.101 840.8 854.601 833.2 851.701 825.8C845.901 811 840.001 796.2 833.001 782.1L832.901 782C832.101 780.5 832.801 778.6 834.301 777.9C835.601 777.1 837.401 777.6 838.201 779.1Z" fill="white"/>
<path d="M906.49 2510.77C906.411 2510.85 906.341 2510.93 906.283 2510.99C906.072 2510.89 905.76 2510.75 905.352 2510.55C904.52 2510.15 903.285 2509.56 901.674 2508.76C898.453 2507.17 893.728 2504.79 887.717 2501.61C875.697 2495.25 858.536 2485.71 837.979 2473C796.865 2447.57 742.174 2409.44 687.867 2358.66C579.247 2257.09 472.206 2104.92 478.3 1902.42C482.997 1745.38 543.829 1599.49 616.578 1479.68C689.325 1359.88 773.972 1266.19 826.255 1213.55C831.037 1208.77 838.513 1206.63 844.374 1206.94C847.308 1207.09 849.757 1207.85 851.255 1209.12C851.997 1209.75 852.501 1210.5 852.731 1211.37C852.961 1212.23 852.926 1213.25 852.527 1214.44C833.171 1271.66 829.187 1344.35 835.003 1424.33C840.82 1504.33 856.441 1591.67 876.326 1678.2C905.856 1806.71 944.799 1933.49 975.009 2031.83C985.481 2065.92 994.903 2096.59 1002.52 2122.74C1034.38 2232.09 1010.26 2329.21 978.171 2399.02C962.125 2433.92 944.087 2461.98 930.061 2481.32C923.049 2490.99 917.04 2498.48 912.785 2503.55C910.658 2506.08 908.969 2508.01 907.813 2509.3C907.235 2509.95 906.79 2510.44 906.49 2510.77Z" fill="#4DB6AC" stroke="#F2F2F2"/>
<path opacity="0.45" d="M752.3 1421.1C726.2 1459 706.6 1500.9 691.5 1544.1C676.4 1587.3 666.6 1632.2 662 1677.6C659.7 1700.3 659 1723.1 659.4 1745.9L660 1763C660.3 1768.7 660.9 1774.4 661.3 1780L661.9 1788.5L662.9 1797C663.6 1802.7 664.2 1808.3 664.9 1814L667.6 1830.9C668.1 1833.7 668.5 1836.5 669 1839.3L670.7 1847.7L674.2 1864.4L678.4 1880.9L680.5 1889.2C681.3 1891.9 682.1 1894.7 682.9 1897.4L687.8 1913.8C691.2 1924.7 694.9 1935.6 698.6 1946.5C713.4 1989.9 729.4 2033 746.4 2075.6C754.9 2096.9 763.7 2118.2 772.6 2139.3C781.5 2160.5 790.5 2181.6 799.6 2202.7C808.7 2223.8 817.9 2244.9 826.8 2266.2C835.7 2287.5 844.5 2308.8 852.2 2330.6C859.9 2352.4 866.7 2374.6 871.4 2397.4C873.6 2408.8 875.3 2420.3 876 2431.9C876.6 2443.5 876.3 2455.2 874.9 2466.7C874.8 2467.6 874 2468.3 873.1 2468.1C872.2 2468 871.6 2467.2 871.7 2466.3C872.6 2454.9 872.4 2443.5 871.4 2432.2C870.3 2420.9 868.3 2409.6 865.8 2398.5C860.6 2376.3 853.2 2354.6 844.9 2333.3C828.2 2290.6 809 2248.9 790 2206.9C751.7 2123.2 716.1 2037.9 686.4 1950.5C682.7 1939.6 679 1928.7 675.5 1917.6L670.5 1900.9C669.7 1898.1 668.8 1895.3 668 1892.5L665.9 1884L661.7 1867.1L658.2 1850L656.5 1841.5C655.9 1838.6 655.6 1835.8 655.1 1832.9L652.4 1815.7C646.3 1769.6 645.9 1722.7 651.3 1676.6C654.2 1653.6 658.3 1630.7 663.9 1608.2C669.5 1585.7 676.5 1563.6 684.9 1542C693.2 1520.4 703.1 1499.4 714.1 1479.1C725.2 1458.8 737.3 1439.1 751.7 1421.1C751.8 1421 751.9 1421 752 1421.1C752.3 1420.8 752.3 1421 752.3 1421.1Z" fill="white"/>
<path d="M1282.6 1323.1V812.3C1282.6 800.7 1289.9 790.3 1300.8 786.6C1356.6 767.5 1412.5 770.2 1468.3 794.5C1480.3 799.7 1487.8 811.8 1486.9 824.9L1452.9 1322.1L1282.6 1323.1Z" fill="#2196F3"/>
<path d="M1314.7 833.8V958.201C1314.7 968.301 1322.6 976.601 1332.6 977.201L1423 982.6C1433.2 983.2 1442 975.7 1443.1 965.5L1456.3 837.5C1457.4 827.1 1449.9 817.8 1439.5 816.6C1412.7 813.6 1363 809.401 1330.5 814.901C1321.4 816.501 1314.7 824.5 1314.7 833.8Z" fill="#64B5F6"/>
<path d="M1493.7 840.3L1463.6 1322H1644.2V853.7C1644.2 840.2 1635.6 828.3 1622.9 823.9C1599 815.7 1558.4 805.5 1518.5 812.6C1504.7 815.1 1494.5 826.5 1493.7 840.3Z" fill="#2196F3"/>
<path d="M1494.1 1143.7L1488 1278C1487.5 1289.1 1496.4 1298.4 1507.5 1298.4H1598.7C1609.5 1298.4 1618.2 1289.6 1618.2 1278.9V1144.6C1618.2 1133.8 1609.4 1125.1 1598.7 1125.1H1513.6C1503.2 1125 1494.6 1133.2 1494.1 1143.7Z" fill="#64B5F6"/>
<path d="M1818 1322V824.001C1818 811.601 1809.9 800.501 1798.1 796.901C1744.9 780.701 1698.7 789.801 1674.4 797.301C1663.6 800.601 1656.3 810.601 1656.3 821.801V1322H1818Z" fill="#64B5F6"/>
<path d="M1672.2 832.3L1676.1 905.8C1676.6 915 1684.2 922.1 1693.3 922.1H1779.9C1789.2 922.1 1796.8 914.701 1797.1 905.401L1799.5 832.901C1799.8 824.601 1794.1 817.2 1786 815.5C1765 811 1723.6 804.7 1685.3 814.6C1677.3 816.7 1671.8 824.1 1672.2 832.3Z" fill="#2196F3"/>
<path d="M1679 953.901C1679.6 962.901 1687.1 970.001 1696.2 970.001H1779.1C1788.8 970.001 1796.5 962.101 1796.4 952.401C1796.2 943.001 1788.5 935.501 1779.1 935.501H1696.2C1686.2 935.401 1678.3 943.901 1679 953.901Z" fill="#E57373"/>
<path d="M2380.7 840.3C2380.7 840.3 2366 748.601 2411 718.901C2413 717.601 2415.7 719.101 2415.7 721.501V738.901C2415.7 743.101 2420.7 745.201 2423.7 742.401C2433.4 733.301 2450.7 719.401 2469.1 716.501C2474 715.701 2477.8 720.6 2475.7 725.1C2464.4 749.2 2434.9 816.801 2436 861.001L2380.7 840.3Z" fill="#64B5F6"/>
<path d="M2332.9 840.3L2302.8 1322H2483.4V853.7C2483.4 840.2 2474.8 828.3 2462.1 823.9C2438.2 815.7 2397.6 805.5 2357.7 812.6C2344 815.1 2333.8 826.5 2332.9 840.3Z" fill="#2196F3"/>
<path d="M2333.4 1143.7L2327.3 1278C2326.8 1289.1 2335.7 1298.4 2346.8 1298.4H2438C2448.8 1298.4 2457.5 1289.6 2457.5 1278.9V1144.6C2457.5 1133.8 2448.7 1125.1 2438 1125.1H2352.9C2342.5 1125 2333.9 1133.2 2333.4 1143.7Z" fill="#64B5F6"/>
<path d="M1151.9 812.701C1138.3 815.101 1128.1 826.501 1127.2 840.301L1097.1 1322H1277.7V853.701C1277.7 840.201 1269.1 828.301 1256.4 823.901C1232.5 815.801 1191.8 805.601 1151.9 812.701Z" fill="#2196F3"/>
<path d="M1127.7 1143.7L1121.6 1278C1121.1 1289.1 1130 1298.4 1141.1 1298.4H1232.3C1243.1 1298.4 1251.8 1289.6 1251.8 1278.9V1144.6C1251.8 1133.8 1243 1125.1 1232.3 1125.1H1147.2C1136.8 1125 1128.2 1133.2 1127.7 1143.7Z" fill="#64B5F6"/>
<path d="M2657.2 1322V824.001C2657.2 811.601 2649.1 800.501 2637.3 796.901C2584.1 780.701 2537.9 789.801 2513.6 797.301C2502.8 800.601 2495.5 810.601 2495.5 821.801V1322H2657.2Z" fill="#2196F3"/>
<path d="M2511.5 832.3L2515.4 905.8C2515.9 915 2523.5 922.1 2532.6 922.1H2619.2C2628.5 922.1 2636.1 914.701 2636.4 905.401L2638.8 832.901C2639.1 824.601 2633.4 817.2 2625.3 815.5C2604.3 811 2562.9 804.7 2524.6 814.6C2516.6 816.7 2511 824.1 2511.5 832.3Z" fill="#64B5F6"/>
<path d="M2518.2 953.901C2518.8 962.901 2526.3 970.001 2535.4 970.001H2618.3C2628 970.001 2635.7 962.101 2635.6 952.401C2635.4 943.001 2627.7 935.501 2618.3 935.501H2535.4C2525.4 935.401 2517.5 943.901 2518.2 953.901Z" fill="#64B5F6"/>
<path d="M1831.3 827.4L1824.9 1324.4H2113.7L2092.1 840.6C2091.5 826.6 2082.5 814.5 2069.3 809.8C2033.4 797 1955.3 778.2 1849.4 804.6C1838.9 807.2 1831.5 816.6 1831.3 827.4Z" fill="#2196F3"/>
<path d="M2106.8 837.9L2126.8 1321.5H2297.8L2310.8 832.5C2311.2 819.1 2302.6 806.9 2289.7 803C2234.1 786.3 2178.8 784.7 2124.3 809.6C2113.3 814.7 2106.3 825.8 2106.8 837.9Z" fill="#64B5F6"/>
<path d="M2122.4 856.1L2124.4 882.4C2125 890.4 2131.9 896.4 2139.9 895.9L2279.6 887.8C2286.9 887.4 2292.8 881.6 2293.4 874.3L2294.8 856.1C2295.4 847.6 2288.7 840.3 2280.2 840.3H2137C2128.4 840.3 2121.7 847.6 2122.4 856.1Z" fill="#2196F3"/>
<path d="M2128.1 918.9V928.5C2128.1 935.9 2134.3 941.8 2141.7 941.5L2275.6 935.9C2282.6 935.6 2288.1 929.9 2288.1 922.9V912.7C2288.1 905.3 2281.9 899.3 2274.5 899.7L2140.6 905.9C2133.6 906.2 2128.1 912 2128.1 918.9Z" fill="#E57373"/>
<path d="M2863.1 830.4L2883.1 1314H3054.1L3067.1 825C3067.5 811.6 3058.9 799.4 3046 795.5C2990.4 778.8 2935.1 777.2 2880.6 802.1C2869.6 807.1 2862.6 818.3 2863.1 830.4Z" fill="#2196F3"/>
<path d="M2878.7 848.5L2880.7 874.8C2881.3 882.8 2888.2 888.8 2896.2 888.3L3035.9 880.2C3043.2 879.8 3049.1 874 3049.7 866.7L3051.1 848.5C3051.7 840 3045 832.7 3036.5 832.7H2893.4C2884.8 832.7 2878 840 2878.7 848.5Z" fill="#64B5F6"/>
<path d="M2884.4 911.4V921C2884.4 928.4 2890.6 934.3 2898 934L3031.9 928.4C3038.9 928.1 3044.4 922.4 3044.4 915.4V905.2C3044.4 897.8 3038.2 891.8 3030.8 892.2L2896.9 898.4C2889.9 898.7 2884.4 904.4 2884.4 911.4Z" fill="#64B5F6"/>
<path d="M2696.3 834.8L2666.2 1316.5H2846.8V848.3C2846.8 834.8 2838.2 822.9 2825.5 818.5C2801.6 810.3 2761 800.1 2721.1 807.2C2707.4 809.7 2697.2 821 2696.3 834.8Z" fill="#64B5F6"/>
<path d="M2703.1 1138.2L2697 1272.5C2696.5 1283.6 2705.4 1292.9 2716.5 1292.9H2807.7C2818.5 1292.9 2827.2 1284.1 2827.2 1273.4V1139.1C2827.2 1128.3 2818.4 1119.6 2807.7 1119.6H2722.6C2712.1 1119.5 2703.5 1127.8 2703.1 1138.2Z" fill="#2196F3"/>
<path d="M3091.6 2920.6V2432.1C3091.6 2421 3084.6 2411.1 3074.2 2407.5C3020.8 2389.3 2967.4 2391.8 2914 2415.1C2902.5 2420.1 2895.3 2431.7 2896.2 2444.1L2928.7 2919.5L3091.6 2920.6Z" fill="#2196F3"/>
<path d="M3061 2452.7V2571.7C3061 2581.3 3053.5 2589.3 3043.9 2589.9L2957.4 2595.1C2947.7 2595.7 2939.2 2588.5 2938.2 2578.8L2925.5 2456.4C2924.5 2446.5 2931.6 2437.5 2941.6 2436.4C2967.3 2433.5 3014.8 2429.5 3045.8 2434.8C3054.6 2436.2 3061 2443.8 3061 2452.7Z" fill="#64B5F6"/>
<path d="M2889.8 2458.9L2918.6 2919.5H2746V2471.7C2746 2458.8 2754.2 2447.4 2766.4 2443.2C2789.2 2435.4 2828.1 2425.6 2866.2 2432.4C2879.2 2434.9 2889 2445.7 2889.8 2458.9Z" fill="#64B5F6"/>
<path d="M2889.4 2749L2895.2 2877.4C2895.7 2888 2887.2 2896.9 2876.5 2896.9H2789.3C2779 2896.9 2770.6 2888.5 2770.6 2878.2V2749.8C2770.6 2739.5 2779 2731.1 2789.3 2731.1H2870.7C2880.7 2731.2 2888.9 2739 2889.4 2749Z" fill="#2196F3"/>
<path d="M2579.7 2919.6V2443.4C2579.7 2431.5 2587.4 2420.9 2598.8 2417.5C2649.6 2402 2693.9 2410.7 2717.1 2417.9C2727.4 2421.1 2734.4 2430.6 2734.4 2441.3V2919.6H2579.7V2919.6Z" fill="#64B5F6"/>
<path d="M2719.1 2451.4L2715.3 2521.7C2714.8 2530.5 2707.6 2537.3 2698.8 2537.3H2616C2607.1 2537.3 2599.8 2530.2 2599.5 2521.3L2597.2 2451.9C2596.9 2443.9 2602.4 2436.9 2610.2 2435.2C2630.3 2430.9 2669.9 2424.9 2706.5 2434.4C2714.2 2436.4 2719.5 2443.4 2719.1 2451.4Z" fill="#FDF53F"/>
<path d="M2712.7 2567.6C2712.1 2576.3 2704.9 2583 2696.2 2583H2616.9C2607.7 2583 2600.2 2575.4 2600.4 2566.2C2600.6 2557.2 2607.9 2550 2616.9 2550H2696.2C2705.8 2549.9 2713.3 2558 2712.7 2567.6Z" fill="#FDF53F"/>
<path d="M2041.6 2458.9C2041.6 2458.9 2055.7 2371.2 2012.6 2342.9C2010.7 2341.6 2008.1 2343.1 2008.1 2345.4V2362.1C2008.1 2366.1 2003.4 2368.1 2000.5 2365.4C1991.2 2356.7 1974.7 2343.4 1957.1 2340.6C1952.4 2339.9 1948.8 2344.5 1950.8 2348.8C1961.6 2371.9 1989.8 2436.5 1988.7 2478.8L2041.6 2458.9Z" fill="#64B5F6"/>
<path d="M2087.3 2458.9L2116.1 2919.5H1943.4V2471.7C1943.4 2458.8 1951.6 2447.4 1963.8 2443.2C1986.6 2435.4 2025.5 2425.6 2063.6 2432.4C2076.8 2434.9 2086.5 2445.7 2087.3 2458.9Z" fill="#2196F3"/>
<path d="M2086.9 2749L2092.7 2877.4C2093.2 2888 2084.7 2896.9 2074 2896.9H1986.8C1976.5 2896.9 1968.1 2888.5 1968.1 2878.2V2749.8C1968.1 2739.5 1976.5 2731.1 1986.8 2731.1H2068.2C2078.2 2731.2 2086.4 2739 2086.9 2749Z" fill="#64B5F6"/>
<path d="M1777.3 2919.6V2443.4C1777.3 2431.5 1785 2420.9 1796.4 2417.5C1847.2 2402 1891.5 2410.7 1914.7 2417.9C1925 2421.1 1932 2430.6 1932 2441.3V2919.6H1777.3V2919.6Z" fill="#2196F3"/>
<path d="M1916.6 2451.4L1912.8 2521.7C1912.3 2530.5 1905.1 2537.3 1896.3 2537.3H1813.5C1804.6 2537.3 1797.3 2530.2 1797 2521.3L1794.7 2451.9C1794.4 2443.9 1799.9 2436.9 1807.7 2435.2C1827.8 2430.9 1867.4 2424.9 1904 2434.4C1911.7 2436.4 1917 2443.4 1916.6 2451.4Z" fill="#64B5F6"/>
<path d="M1910.2 2567.6C1909.6 2576.3 1902.4 2583 1893.7 2583H1814.4C1805.2 2583 1797.7 2575.4 1797.9 2566.2C1798.1 2557.2 1805.4 2550 1814.4 2550H1893.7C1903.3 2549.9 1910.8 2558 1910.2 2567.6Z" fill="#64B5F6"/>
<path d="M2566.9 2446.6L2573 2921.8H2296.9L2317.6 2459.2C2318.2 2445.8 2326.8 2434.2 2339.4 2429.7C2373.7 2417.4 2448.4 2399.5 2549.6 2424.7C2559.7 2427.3 2566.8 2436.3 2566.9 2446.6Z" fill="#2196F3"/>
<path d="M2303.6 2456.7L2284.4 2919.1H2120.9L2108.5 2451.5C2108.2 2438.6 2116.4 2427 2128.7 2423.3C2181.9 2407.3 2234.7 2405.8 2286.9 2429.6C2297.4 2434.5 2304 2445.1 2303.6 2456.7Z" fill="#64B5F6"/>
<path d="M2288.7 2474.1L2286.8 2499.2C2286.2 2506.8 2279.6 2512.6 2272 2512.1L2138.4 2504.3C2131.4 2503.9 2125.8 2498.4 2125.2 2491.3L2123.9 2473.9C2123.3 2465.8 2129.7 2458.8 2137.9 2458.8H2274.8C2282.9 2458.9 2289.3 2465.9 2288.7 2474.1Z" fill="#2196F3"/>
<path d="M2283.1 2534.1V2543.3C2283.1 2550.4 2277.2 2556 2270.1 2555.7L2142.1 2550.4C2135.4 2550.1 2130.2 2544.6 2130.2 2538V2528.3C2130.2 2521.2 2136.1 2515.5 2143.2 2515.9L2271.2 2521.8C2277.9 2522 2283.1 2527.5 2283.1 2534.1Z" fill="#E57373"/>
<path d="M1597.6 2914.3V2425.8C1597.6 2414.7 1590.6 2404.8 1580.2 2401.2C1526.8 2383 1473.4 2385.5 1420 2408.8C1408.5 2413.8 1401.3 2425.4 1402.2 2437.8L1434.7 2913.2L1597.6 2914.3Z" fill="#2196F3"/>
<path d="M1566.9 2446.4V2565.4C1566.9 2575 1559.4 2583 1549.8 2583.6L1463.3 2588.8C1453.6 2589.4 1445.1 2582.2 1444.1 2572.5L1431.4 2450.1C1430.4 2440.2 1437.5 2431.2 1447.5 2430.1C1473.2 2427.2 1520.7 2423.2 1551.7 2428.5C1560.5 2429.9 1566.9 2437.5 1566.9 2446.4Z" fill="#64B5F6"/>
<path d="M1395.8 2452.6L1424.6 2913.2H1251.9V2465.4C1251.9 2452.5 1260.1 2441.1 1272.3 2436.9C1295.1 2429.1 1334 2419.3 1372.1 2426.1C1385.2 2428.5 1395 2439.4 1395.8 2452.6Z" fill="#64B5F6"/>
<path d="M1395.3 2742.7L1401.1 2871.1C1401.6 2881.7 1393.1 2890.6 1382.4 2890.6H1295.2C1284.9 2890.6 1276.5 2882.2 1276.5 2871.9V2743.5C1276.5 2733.2 1284.9 2724.8 1295.2 2724.8H1376.6C1386.6 2724.9 1394.9 2732.7 1395.3 2742.7Z" fill="#E57373"/>
<path d="M1085.7 2913.2V2437C1085.7 2425.1 1093.4 2414.5 1104.8 2411.1C1155.6 2395.6 1199.9 2404.3 1223.1 2411.5C1233.4 2414.7 1240.4 2424.2 1240.4 2434.9V2913.2H1085.7V2913.2Z" fill="#FDF53F"/>
<path d="M1225 2445L1221.2 2515.3C1220.7 2524.1 1213.5 2530.9 1204.7 2530.9H1122C1113.1 2530.9 1105.8 2523.8 1105.5 2514.9L1103.2 2445.5C1102.9 2437.5 1108.4 2430.5 1116.2 2428.8C1136.3 2424.5 1175.9 2418.5 1212.5 2428C1220.2 2430.1 1225.5 2437.1 1225 2445Z" fill="#FDF53F"/>
<path d="M1218.6 2561.2C1218 2569.9 1210.8 2576.6 1202.1 2576.6H1122.8C1113.6 2576.6 1106.1 2569 1106.3 2559.8C1106.5 2550.8 1113.8 2543.6 1122.8 2543.6H1202.1C1211.7 2543.6 1219.3 2551.7 1218.6 2561.2Z" fill="#FDF53F"/>
<path d="M1722.5 2426.2C1735.5 2428.5 1745.3 2439.4 1746.1 2452.6L1774.9 2913.2H1602.2V2465.4C1602.2 2452.5 1610.4 2441.1 1622.6 2436.9C1645.5 2429.2 1684.4 2419.5 1722.5 2426.2Z" fill="#64B5F6"/>
<path d="M1745.7 2742.7L1751.5 2871.1C1752 2881.7 1743.5 2890.6 1732.8 2890.6H1645.6C1635.3 2890.6 1626.9 2882.2 1626.9 2871.9V2743.5C1626.9 2733.2 1635.3 2724.8 1645.6 2724.8H1727C1737 2724.9 1745.2 2732.7 1745.7 2742.7Z" fill="#2196F3"/>
<path d="M1403.8 1697.7L1397.4 2194.7H1686.2L1664.6 1710.9C1664 1696.9 1655 1684.8 1641.8 1680.1C1605.9 1667.3 1527.8 1648.5 1421.9 1674.9C1411.4 1677.5 1404 1686.9 1403.8 1697.7Z" fill="#2196F3"/>
<path d="M2654.1 1705.6L2674.1 2189.2H2845.1L2858.1 1700.2C2858.5 1686.8 2849.9 1674.6 2837 1670.7C2781.4 1654 2726.1 1652.4 2671.6 1677.3C2660.6 1682.4 2653.6 1693.5 2654.1 1705.6Z" fill="#2196F3"/>
<path d="M2669.7 1723.8L2671.7 1750.1C2672.3 1758.1 2679.2 1764.1 2687.2 1763.6L2826.9 1755.5C2834.2 1755.1 2840.1 1749.3 2840.7 1742L2842.1 1723.8C2842.7 1715.3 2836 1708 2827.5 1708H2684.4C2675.8 1708 2669.1 1715.3 2669.7 1723.8Z" fill="#64B5F6"/>
<path d="M2675.5 1786.6V1796.2C2675.5 1803.6 2681.7 1809.5 2689.1 1809.2L2823 1803.6C2830 1803.3 2835.5 1797.6 2835.5 1790.6V1780.4C2835.5 1773 2829.3 1767 2821.9 1767.4L2688 1773.6C2681 1773.9 2675.5 1779.6 2675.5 1786.6Z" fill="#64B5F6"/>
<path d="M2945.2 1620.7C2945.2 1620.7 2929.8 1525 2976.8 1494C2978.9 1492.6 2981.7 1494.2 2981.7 1496.7V1514.9C2981.7 1519.2 2986.9 1521.5 2990 1518.5C3000.1 1509 3018.2 1494.5 3037.4 1491.5C3042.5 1490.7 3046.5 1495.8 3044.3 1500.5C3032.5 1525.7 3001.7 1596.2 3002.9 1642.4L2945.2 1620.7Z" fill="#64B5F6"/>
<path d="M2895.3 1620.7L2863.8 2192.4H3052.3V1634.7C3052.3 1620.6 3043.3 1608.2 3030 1603.6C3005.1 1595.1 2962.7 1584.4 2921 1591.8C2906.8 1594.4 2896.2 1606.3 2895.3 1620.7Z" fill="#2196F3"/>
<path d="M2895.8 1937.4L2889.4 2146.5C2888.9 2158.1 2898.1 2167.8 2909.8 2167.8H3005C3016.3 2167.8 3025.4 2158.7 3025.4 2147.4V1938.3C3025.4 1927 3016.3 1917.9 3005 1917.9H2916.2C2905.2 1917.9 2896.3 1926.5 2895.8 1937.4Z" fill="#64B5F6"/>
<path d="M1095.3 1600.4L1088.6 2188.1H1390L1367.4 1614.3C1366.7 1599.7 1357.3 1587 1343.6 1582.1C1306.1 1568.7 1224.6 1549.1 1114.1 1576.7C1103.2 1579.4 1095.5 1589.1 1095.3 1600.4Z" fill="#2196F3"/>
<path d="M3250.9 2188.1H998.9V2331.3H3250.9V2188.1Z" fill="#FFB74D"/>
<path d="M3233.2 2913.5H981.2V3056.7H3233.2V2913.5Z" fill="#FFB74D"/>
<path d="M3209.4 1311.6H1020.6V1454.8H3209.4V1311.6Z" fill="#FFB74D"/>
<path d="M1026.5 716.4H890.601V3128.9H1026.5V716.4Z" fill="#FFB74D"/>
<path d="M3257.2 737.101H3121.3V3149.6H3257.2V737.101Z" fill="#FFB74D"/>
<path d="M1689.9 2188L1629.7 1461C1628.4 1445.7 1639.8 1432.2 1655.2 1430.9C1709.5 1426.6 1849.2 1428.1 2119.7 1503.7L2155 2197.5L1689.9 2188Z" fill="#E57373"/>
<path d="M1735.4 2188.9L1672.2 1418.7C1671.2 1406.2 1681 1395.5 1693.5 1395.3C1769.1 1394.3 2010.3 1399.9 2119.6 1503.6L2154.9 2197.4L1735.4 2188.9Z" fill="#3199E3"/>
<path d="M1762.4 2177.7C1752.5 2177.5 1744.3 2169.8 1743.5 2160L1684.4 1430.3C1683.4 1418.2 1692.8 1407.8 1704.8 1407.6C1776 1406.7 2000 1411.8 2107.5 1506.9C2111.4 1510.4 2113.8 1515.3 2114.1 1520.5L2146.4 2165C2147 2176.2 2137.9 2185.5 2126.7 2185.3L1762.4 2177.7Z" fill="white"/>
<path d="M1718.6 1460.4L1755.1 1877.4C1756.5 1892.9 1769.3 1904.8 1784.8 1904.9L2067.5 1907.9C2084.7 1908.1 2098.6 1893.9 2098 1876.7L2086 1529.3C2085.6 1518 2078.9 1507.8 2068.7 1503C2021.9 1481.1 1884 1423.1 1747.8 1427.5C1730.5 1428.2 1717.1 1443.2 1718.6 1460.4Z" fill="#EEEEEE"/>
<path d="M1763.7 1968.7L1765.8 1979.3C1767.1 1986 1772.9 1990.8 1779.7 1991L2078.8 1996.4C2087.6 1996.6 2094.4 1988.9 2093.4 1980.2L2091.4 1966C2090.5 1958.8 2084.7 1953.7 2077.4 1953.6L1778 1951.6C1768.9 1951.5 1762 1959.8 1763.7 1968.7Z" fill="#EEEEEE"/>
<path d="M1770.3 2046.4L1771.4 2060.7C1772 2068.3 1778.4 2074.2 1786.1 2074L2078.5 2068.1C2087 2067.9 2093.4 2060.5 2092.5 2052.1L2092.3 2051.9C2091.5 2044.7 2085.8 2039.5 2078.6 2039.3L1785.1 2030.9C1776.5 2030.7 1769.6 2037.9 1770.3 2046.4Z" fill="#EEEEEE"/>
<path d="M1773.5 2126.5L1775.1 2138.8C1775.8 2143.9 1780.1 2147.7 1785.2 2147.6L2093.6 2144.9C2100.1 2144.8 2104.9 2138.7 2103.3 2132.3L2097.9 2110.7C2096.8 2106.1 2092.6 2102.9 2087.8 2103L1786.2 2111.4C1778.5 2111.8 1772.5 2118.8 1773.5 2126.5Z" fill="#EEEEEE"/>
<path d="M2135.2 1501.9C2135.2 1501.9 2342 1357 2605.6 1432.6C2621.4 1437.1 2632.3 1451.6 2632.4 1468L2637.4 2192.5L2154.9 2197.6L2135.2 1501.9Z" fill="#E57373"/>
<path d="M2590 1425.3L2605.4 2194.1L2154.8 2197.6L2119.5 1503.8C2119.5 1503.8 2338.2 1360.3 2552 1383.6C2573.5 1385.8 2589.6 1403.9 2590 1425.3Z" fill="#3199E3"/>
<path d="M2582.5 1437.4L2597.3 2172.2C2597.5 2184.5 2587.5 2194.6 2575.1 2194.3L2182.1 2186.2C2170.1 2186 2160.3 2176.5 2159.7 2164.5L2126.6 1513.3C2126.6 1513.3 2338.6 1374.2 2545.8 1396.8C2566.5 1399.1 2582.1 1416.6 2582.5 1437.4Z" fill="white"/>
<path d="M2214.4 1511C2191.8 1517.3 2176.8 1538.6 2178.4 1562C2184.8 1657.6 2200.9 1897.3 2207.3 1974.9C2208.5 1988.9 2220.3 1999.7 2234.4 1999.5L2525.9 1995.3C2543.1 1995.1 2556.8 1980.9 2556.5 1963.8L2548.5 1471C2548.2 1455.2 2535.6 1442.3 2519.8 1441.8C2472.8 1440.2 2294 1488.7 2214.4 1511Z" fill="#EEEEEE"/>
<path d="M2221.8 2049.9L2540.8 2056.4C2548.4 2056.6 2554.5 2062.9 2554.3 2070.5V2070.7C2554.1 2078.3 2547.8 2084.4 2540.2 2084.2L2221.2 2077.7C2213.6 2077.5 2207.5 2071.2 2207.7 2063.6V2063.4C2207.8 2055.8 2214.1 2049.7 2221.8 2049.9Z" fill="#EEEEEE"/>
<path d="M2206.1 2127L2206.3 2135.6C2206.4 2143 2212.4 2149 2219.8 2149.2L2539 2156.6C2546.8 2156.8 2553.3 2150.4 2553.1 2142.6C2553 2135.3 2547.2 2129.4 2540 2129.1L2220.6 2113.1C2212.6 2112.5 2205.9 2119 2206.1 2127Z" fill="#EEEEEE"/>
<path d="M2587.3 3164C2587.3 3164 2592 3190.4 2594.2 3216.5C2595.1 3226.7 2587.2 3235.6 2577 3236C2542.2 3237.4 2467.8 3240.3 2441.1 3239.1C2437.1 3238.9 2434.5 3234.8 2435.9 3231.1C2437.1 3228 2439.5 3225.4 2442.6 3224L2565.6 3167.5L2587.3 3164Z" fill="black"/>
<path d="M2591.1 3148.5L2587.4 3180.1C2587.4 3180.1 2565.9 3190.1 2551.2 3178.8L2560.1 3143.6L2591.1 3148.5Z" fill="#FFBFA4"/>
<path d="M2588.3 2554.9C2589.9 2563.1 2597 2966.4 2553.9 3147.1C2553.2 3150 2554.7 3153.1 2557.5 3154.2C2564.1 3156.9 2577.1 3160.8 2592.6 3161.3C2597.4 3161.5 2601.7 3158.3 2603.1 3153.7C2615.4 3111.8 2674.5 2901.7 2682.2 2701.1C2690.8 2476.9 2682.2 2693.5 2682.2 2693.5L2677.2 2554.9H2588.3Z" fill="black"/>
<path d="M2728.7 3177.8C2728.7 3177.8 2736.1 3191.1 2743.3 3226.5C2744.6 3232.9 2740.1 3239 2733.6 3239.7C2722.1 3240.8 2704.4 3242.3 2690.3 3242.2C2683.8 3242.2 2678.7 3236.5 2679.5 3230C2681.1 3217.1 2686 3195.9 2701.1 3179.3L2728.7 3177.8Z" fill="black"/>
<path d="M2735.3 3137.2L2726.5 3184.9C2726.5 3184.9 2717.8 3191.3 2700.7 3186.7L2704.9 3135.3L2735.3 3137.2Z" fill="#FFBFA4"/>
<path d="M2758.9 2567.3C2794.2 2780 2751.3 3093.1 2736.8 3154.4C2735.9 3158.2 2732.9 3161 2729.1 3161.7C2722.6 3162.8 2712 3163.6 2701.5 3160.6C2697.9 3159.6 2695.4 3156.3 2695.2 3152.5C2693.3 3103 2696.8 2798.8 2663.9 2678.6C2662.2 2672.5 2658.5 2667.2 2653.4 2663.5L2589.6 2618.2L2584.7 2544.9L2758.9 2567.3Z" fill="black"/>
<path d="M2534.3 2164.2C2639.9 2162.5 2756.5 2191.9 2756.5 2191.9C2788 2375.6 2762 2587.6 2762 2587.6C2680.2 2609 2588 2574.5 2588 2574.5C2574.4 2497.7 2511 2281.6 2511 2281.6C2459.4 2275.2 2416.9 2260.3 2381.8 2240.6C2408.5 2209.6 2421.1 2170.2 2426.6 2147C2463.9 2158.5 2501.7 2164.7 2534.3 2164.2Z" fill="#4DB6AC"/>
<path d="M2222.2 2008.5C2232.6 1996 2245.7 2001.9 2245.7 2001.9C2261.2 2067.6 2342.8 2120.8 2426.5 2146.8C2421 2170.1 2408.4 2209.5 2381.7 2240.4C2242.8 2162.4 2222.2 2008.5 2222.2 2008.5Z" fill="#FFBFA4"/>
<path d="M2224.7 2011.7C2223.6 2015.2 2236.2 2020.4 2243.6 2006.3C2243.9 1999.5 2248 1970.5 2243.9 1965C2222.4 1935.6 2180.6 1898.8 2180.6 1898.8C2173.5 1905.8 2179.4 1912.6 2179.4 1912.6L2199.7 1933.7C2195.5 1941.4 2190.3 1947.8 2187.9 1957.1C2186.1 1964.1 2187.2 1971.6 2190.7 1978C2194.3 1984.4 2199.1 1992.7 2203.7 1999.2C2212.4 2011.6 2224.7 2011.7 2224.7 2011.7Z" fill="#FFBFA4"/>
<path d="M2208.5 1947.5L2227 1963.1L2232.8 1978.7L2216.3 1997C2216.3 1997 2210.8 1966.1 2206.7 1959.4C2202.6 1952.7 2204.7 1949.4 2208.5 1947.5Z" fill="#FFBFA4"/>
<path d="M2716 2294.2L2756.5 2191.9C2756.5 2191.9 2855.2 2258.9 2871.4 2344C2852.8 2345.4 2818.8 2350.2 2785.6 2367C2778.3 2326.8 2716 2294.2 2716 2294.2Z" fill="#4DB6AC"/>
<path d="M2629.7 2390.4C2629.7 2390.4 2740.5 2453 2777.9 2399.5C2785.7 2388.4 2787.5 2377.4 2785.6 2366.8C2818.8 2350 2852.7 2345.2 2871.4 2343.8C2876.3 2369.4 2873.7 2396.7 2858.6 2424.2C2793.1 2544 2615 2417.6 2615 2417.6L2629.7 2390.4Z" fill="#FFBFA4"/>
<path d="M2643 2469.7L2582.5 2258.5C2581.8 2256.1 2579.8 2254.4 2577.3 2254.1C2566.3 2252.8 2534.6 2249.2 2498 2246.1C2453.9 2242.4 2402.6 2239.3 2371.9 2241.9C2367.5 2242.3 2364.9 2246.9 2366.8 2250.8C2384.2 2286 2455.9 2429.4 2491.8 2476.4C2493 2478 2494.8 2478.9 2496.8 2478.8L2637.1 2477.5C2641.2 2477.5 2644.2 2473.6 2643 2469.7Z" fill="#E57373"/>
<path d="M2491.7 2227.8L2447.9 2220.5C2445.6 2220.1 2443.7 2222.3 2444.4 2224.6L2448.7 2237.8C2449.1 2238.9 2450.1 2239.8 2451.3 2239.9L2493.5 2245.5C2495.7 2245.8 2497.5 2243.8 2497 2241.7L2494.3 2230.2C2494 2228.9 2493 2228 2491.7 2227.8Z" fill="#3199E3"/>
<path d="M2524.6 2264.9L2521 2246.1C2520.6 2244.2 2519.1 2242.8 2517.2 2242.6L2428.7 2233.6C2425.7 2233.3 2423.3 2236 2424 2238.9L2429.6 2262.3C2430.1 2264.2 2431.7 2265.5 2433.6 2265.6L2520.1 2270C2522.9 2270.2 2525.1 2267.7 2524.6 2264.9Z" fill="#3199E3"/>
<path d="M2628.4 2418.6C2628.4 2418.6 2636.8 2384 2633.4 2371.7C2630 2359.4 2623.4 2343.6 2601.5 2347.1C2579.6 2350.6 2553.7 2359.9 2553.7 2359.9C2553.7 2359.9 2555 2375.9 2571.7 2370.7L2561.4 2378.7C2561.4 2378.7 2562.9 2391.5 2577 2384.7L2567.4 2395.3C2567.4 2395.3 2573.4 2405.8 2583.8 2399.1C2594.1 2392.3 2599 2422.8 2628.4 2418.6Z" fill="#FFBFA4"/>
<path d="M2641.3 2078.4L2674.9 2175.6C2675.5 2177.2 2674.8 2179 2673.3 2179.8C2664.1 2184.9 2631.1 2199.5 2591.3 2174.3C2587.2 2171.7 2584.3 2167.4 2583.7 2162.5L2572.8 2078.4H2641.3V2078.4Z" fill="#FFBFA4"/>
<path d="M2568.1 1988.4C2568.1 1988.4 2531.2 2057.9 2535.9 2085.9C2540.6 2114 2586.4 2112 2626.3 2089.2L2654.2 2014.2L2568.1 1988.4Z" fill="#FFBFA4"/>
<path d="M2624.6 2052.3C2623 2051.6 2622.4 2049.6 2623.4 2048.1C2626.4 2043.6 2631.9 2034.4 2633.7 2026.3C2633.7 2026.3 2640.3 2022.1 2616.8 2016.4C2593.3 2010.8 2558.2 2002 2550.8 1982C2543.6 1962.5 2562.5 1913.4 2592.6 1952.5C2593.7 1954 2596 1954 2597.1 1952.5C2602 1946.1 2615 1932.7 2633.1 1940.8C2650 1948.4 2651.9 1960.7 2651.6 1967C2651.5 1968.8 2653.2 1970.3 2655 1969.9C2663.5 1968.3 2684 1966.9 2693.6 1987.9C2701.5 2005.2 2696.4 2015 2691.7 2019.8C2690.2 2021.4 2690.9 2023.9 2692.9 2024.5C2698.5 2026.2 2705.7 2031 2705 2044.1C2704 2062.3 2683.7 2060.7 2677.9 2059.8C2677 2059.7 2676 2060 2675.4 2060.7C2670.4 2066.2 2648.1 2089.5 2623.9 2092.3C2621.8 2092.5 2620.2 2090.5 2620.9 2088.5L2631.4 2058.1C2631.9 2056.7 2631.2 2055.1 2629.8 2054.5L2624.6 2052.3Z" fill="black"/>
<path d="M2620.4 2056.6C2620.4 2056.6 2646.7 2038.6 2648.6 2053.8C2650.5 2069 2624.9 2075.8 2612.3 2070.1L2620.4 2056.6Z" fill="#FFBFA4"/>
<path d="M485.501 3087.7H1309.1V2849H485.501C503.101 2849 503.101 3087.7 485.501 3087.7Z" fill="#2196F3"/>
<path d="M1309.1 3028V2918.8C1309.1 2880.3 1292.8 2849.1 1272.7 2849.1H488.901C473.101 2849.1 460.301 2830.6 460.301 2807.7C460.301 2800.8 464.201 2795.1 469.001 2795.1H1325.6C1345.2 2795.1 1376.4 2839.8 1376.4 2895V3047.6C1376.4 3099.6 1346.1 3141.8 1327.6 3141.8H473.501C466.201 3141.8 460.301 3133.2 460.301 3122.7C460.301 3103.4 471.101 3087.8 484.401 3087.8H1277.9C1295.1 3087.7 1309.1 3061 1309.1 3028Z" fill="#98CCF1"/>
<path d="M1286.2 2900.6H514C512.5 2900.6 511.4 2899.4 511.4 2898C511.4 2896.5 512.6 2895.4 514 2895.4H1286.3C1287.8 2895.4 1288.9 2896.6 1288.9 2898C1288.9 2899.5 1287.7 2900.6 1286.2 2900.6Z" fill="white"/>
<path d="M1286.2 2936.1H514C512.5 2936.1 511.4 2934.9 511.4 2933.5C511.4 2932.1 512.6 2930.9 514 2930.9H1286.3C1287.8 2930.9 1288.9 2932.1 1288.9 2933.5C1288.9 2934.9 1287.7 2936.1 1286.2 2936.1Z" fill="white"/>
<path d="M1286.2 2971.5H514C512.5 2971.5 511.4 2970.3 511.4 2968.9C511.4 2967.4 512.6 2966.3 514 2966.3H1286.3C1287.8 2966.3 1288.9 2967.5 1288.9 2968.9C1288.9 2970.3 1287.7 2971.5 1286.2 2971.5Z" fill="white"/>
<path d="M1286.2 3006.9H514C512.5 3006.9 511.4 3005.7 511.4 3004.3C511.4 3002.8 512.6 3001.7 514 3001.7H1286.3C1287.8 3001.7 1288.9 3002.9 1288.9 3004.3C1288.9 3005.7 1287.7 3006.9 1286.2 3006.9Z" fill="white"/>
<path d="M1286.2 3042.4H514C512.5 3042.4 511.4 3041.2 511.4 3039.8C511.4 3038.3 512.6 3037.2 514 3037.2H1286.3C1287.8 3037.2 1288.9 3038.4 1288.9 3039.8C1288.9 3041.2 1287.7 3042.4 1286.2 3042.4Z" fill="white"/>
<path d="M1417.7 2540.9H522.601C516.001 2540.9 510.601 2535.5 510.601 2528.9V2366.3C510.601 2359.7 516.001 2354.3 522.601 2354.3H1417.7C1424.3 2354.3 1429.7 2359.7 1429.7 2366.3V2528.9C1429.6 2535.5 1424.3 2540.9 1417.7 2540.9Z" fill="#98CCF1"/>
<path d="M697.901 2519.4H639.101C625.501 2519.4 614.501 2508.4 614.501 2494.8V2400.3C614.501 2386.7 625.501 2375.7 639.101 2375.7H697.901C711.501 2375.7 722.501 2386.7 722.501 2400.3V2494.8C722.501 2508.4 711.401 2519.4 697.901 2519.4Z" fill="#2196F3"/>
<path d="M1377 2797.9H465.7C457.5 2797.9 450.9 2791.3 450.9 2783.1V2554.6C450.9 2546.4 457.5 2539.8 465.7 2539.8H1377C1385.2 2539.8 1391.8 2546.4 1391.8 2554.6V2783.1C1391.8 2791.2 1385.2 2797.9 1377 2797.9Z" fill="#2196F3"/>
<path d="M1464.5 2640.9C1464.1 2640.7 1246.4 2259.4 1216.9 2223.5C1211.9 2217.5 1204.3 2214.4 1196.5 2215.3L1135.7 2222.5L1064.3 2377L1183.2 2307.7C1171.4 2389.1 1324.2 2510.1 1376.6 2554.2C1381.9 2558.7 1382.4 2566.7 1377.6 2571.7L1356.7 2593.6C1391 2628.4 1430.7 2650.8 1475.4 2661.1L1464.5 2640.9Z" fill="#FFBFA4"/>
<path d="M1368.9 2581.9C1368.9 2581.9 1355.5 2586.2 1351 2598.1C1348.8 2603.8 1351.2 2610.2 1356.1 2613.8C1378.1 2629.6 1450.6 2680.4 1484.1 2690.4C1486.8 2691.2 1489.5 2688.7 1488.8 2685.9C1487.1 2678.1 1481.5 2662.6 1463.6 2639.9L1465.2 2643.1C1467.2 2647.2 1462.8 2651.5 1458.8 2649.2C1436.5 2636.6 1390.9 2608.9 1368.9 2581.9Z" fill="black"/>
<path d="M1379.7 2734.5C1379.3 2734.3 1346.7 2655.6 1346.3 2655.3C1316.3 2472.9 1243.3 2316.8 1221.7 2275.7C1218.1 2268.8 1211.2 2264.2 1203.4 2263.6L1142.4 2258.4L1041.2 2395.2L1171.7 2351.4C1143.7 2428.7 1268.9 2578.1 1311.2 2632C1315.5 2637.5 1314.3 2645.4 1308.6 2649.4L1283.7 2666.6C1310.3 2707.6 1344.6 2737.6 1386.3 2756.7L1379.7 2734.5Z" fill="#FFBFA4"/>
<path d="M1298 2657.3C1298 2657.3 1284.1 2658.8 1277.2 2669.6C1273.9 2674.7 1274.9 2681.5 1279 2686C1297.3 2705.9 1358.1 2770.4 1388.8 2786.9C1391.3 2788.3 1394.4 2786.4 1394.3 2783.5C1394.2 2775.5 1391.9 2759.2 1379 2733.3L1379.9 2736.8C1381.1 2741.2 1375.8 2744.5 1372.4 2741.5C1353.1 2724.6 1314.1 2688.3 1298 2657.3Z" fill="black"/>
<path d="M857.001 2229.5C857.001 2229.5 801.801 2311.6 797.301 2349C792.801 2386.4 812.601 2399.4 870.301 2404.1C1042.1 2418.3 1126.8 2366.8 1126.8 2366.8C1138.6 2291.9 1146.9 2272.8 1245.1 2232C1245.1 2232 1120.9 2241.9 1095.9 2232.2C1071 2222.5 857.001 2229.5 857.001 2229.5Z" fill="#E57373"/>
<path d="M1031 2234L1055 2191.7L1277.4 2201.8C1281.9 2202 1284.1 2207.4 1281 2210.7L1237.1 2237.7L1031 2234Z" fill="#3199E3"/>
<path d="M1034.5 2221.1L1051.2 2191.7L1273.6 2201.8C1278.1 2202 1280.3 2207.4 1277.2 2210.7L1237.2 2233.5L1034.5 2221.1Z" fill="#EEEEEE"/>
<path d="M993.601 2274L1195.7 2282.8C1199.9 2283 1204 2281.5 1207.2 2278.7L1238.7 2236.7L1030.9 2231.2L990.701 2265.9C987.601 2268.6 989.401 2273.8 993.601 2274Z" fill="#3199E3"/>
<path opacity="0.45" d="M1031 2219.6L1041.2 2202.2C1043.2 2198.2 1050.2 2193.8 1054.7 2194L1272.5 2205.1C1274.6 2205.2 1275.4 2208 1273.7 2209.2L1235.6 2231.3L1031 2219.6Z" fill="#EEEEEE"/>
<path d="M993.601 2262.5L1195.7 2271.3C1199.9 2271.5 1204 2270 1207.2 2267.2L1237.1 2233.4L1031 2219.6L990.801 2254.3C987.601 2257.1 989.401 2262.3 993.601 2262.5Z" fill="#EEEEEE"/>
<path opacity="0.45" d="M1003.6 2256.5L1198.3 2264C1202.4 2264.2 1206.3 2262.9 1209.4 2260.5L1233 2234L1031 2219.6L1000.8 2249.4C997.801 2251.8 999.501 2256.3 1003.6 2256.5Z" fill="#EEEEEE"/>
<path d="M1077 1769.8C1077 1769.8 1038.6 1724.3 997.701 1780.1C990.301 1790.2 961.901 1781.9 951.501 1803C946.101 1813.9 934.501 1820.1 922.501 1817.9C892.701 1812.4 844.001 1811.9 819.901 1858.7C801.501 1894.4 815.701 1915.2 834.101 1927.1C847.601 1935.8 852.401 1953.6 844.201 1967.4C836.401 1980.7 834.901 1998.7 855.101 2020.3C900.301 2068.8 989.901 1989.5 989.901 1989.5L1061 1821.5L1077 1769.8Z" fill="black"/>
<path d="M1006.2 2218.6C1006.2 2218.6 1070.4 2157.4 1102.1 2116.9C1119.2 2095 1124.6 2066.2 1116.7 2039.5C1102.3 1990.9 1076.6 1940.5 1074.3 1932.6C1070.7 1920.6 998.701 1921.1 998.701 1921.1C998.701 1921.1 857.001 2013.1 801.301 2168.9L863.801 2188.4C863.801 2188.4 900.801 2126.3 937.401 2086.8C937.401 2086.8 874.101 2170.4 871.901 2204.6L1006.2 2218.6Z" fill="#E57373"/>
<path d="M1128.6 2242.8L1080.3 2190.3L1024.6 2205.3C1024.6 2205.3 959.601 2215.4 922.401 2205.3C885.201 2195.2 885.201 2195.2 885.201 2195.2L801.101 2169L787.901 2206.3C784.501 2215.8 787.901 2226.3 796.101 2232.1C803.401 2237.3 811.901 2242.9 817.301 2245.3C828.401 2250.1 1072.3 2246.8 1072.3 2246.8L1128.6 2242.8Z" fill="#FFBFA4"/>
<path d="M1048.1 1834.6L999.701 1924.6C1002.9 1944.3 1052.4 1944.8 1060 1933.1C1060.8 1931.9 1061.2 1930.5 1061.5 1929.1L1090.5 1868.9C1091.7 1863 1075.7 1843.3 1070.4 1840.5L1051.2 1830.3C1043.7 1826.3 1074.6 1826 1048.1 1834.6Z" fill="#FFBFA4"/>
<path d="M1146 1813.5C1146 1813.5 1151.5 1843.9 1127.6 1882.6C1103.7 1921.3 1079.9 1919.5 1067.8 1905.7C1055.7 1891.9 1041.2 1868.9 1047.8 1830.4C1054.4 1791.8 1137.8 1774.7 1146 1813.5Z" fill="#FFBFA4"/>
<path d="M1076.7 1834.5C1076.7 1834.5 1115.4 1783.7 1145.1 1828L1144.6 1843.3C1144.6 1843.3 1183.2 1841.5 1179.1 1805.9C1174.9 1770.3 1143.4 1745.9 1099.6 1758.1C1055.9 1770.3 1030.3 1784.1 1025.4 1814.5C1020.5 1844.9 1045.3 1839.9 1045.3 1839.9C1045.3 1839.9 1054.8 1818.9 1066.2 1817.5C1077.6 1816.1 1073.5 1832.6 1073.5 1832.6L1076.7 1834.5Z" fill="black"/>
<path d="M1067.9 1833.2C1067.9 1833.2 1088 1807.2 1069.7 1801.8C1051.4 1796.4 1052.1 1827.3 1053.3 1838.8L1067.9 1833.2Z" fill="#FFBFA4"/>
</svg>
